<mxfile host="app.diagrams.net" modified="2021-02-02T03:58:28.691Z" agent="5.0 (Windows NT 10.0; Win64; x64) AppleWebKit/537.36 (KHTML, like Gecko) Chrome/88.0.4324.104 Safari/537.36" etag="hEzytTor217cdTUB6OrZ" version="14.2.9" type="github">
  <diagram id="LiFO-dqfxDTqywaWIYEp" name="Page-1">
    <mxGraphModel dx="865" dy="457" grid="1" gridSize="10" guides="1" tooltips="1" connect="1" arrows="1" fold="1" page="1" pageScale="1" pageWidth="827" pageHeight="1169" background="#F4F1DE" math="0" shadow="0">
      <root>
        <mxCell id="0" />
        <mxCell id="1" parent="0" />
        <mxCell id="6VQLEimUdbVgPZYmoGiA-4" style="edgeStyle=orthogonalEdgeStyle;curved=0;rounded=1;sketch=0;orthogonalLoop=1;jettySize=auto;html=1;strokeColor=#E07A5F;fillColor=#F2CC8F;fontColor=#393C56;" edge="1" parent="1" source="6VQLEimUdbVgPZYmoGiA-1" target="6VQLEimUdbVgPZYmoGiA-3">
          <mxGeometry relative="1" as="geometry" />
        </mxCell>
        <mxCell id="6VQLEimUdbVgPZYmoGiA-1" value="&lt;font&gt;&lt;font style=&quot;font-size: 16px&quot;&gt;获取BeanFactory&lt;/font&gt;&lt;br&gt;&lt;/font&gt;&lt;p&gt;&lt;font style=&quot;line-height: 10%&quot; size=&quot;1&quot;&gt;ConfigurableListableBeanFactory &lt;/font&gt;&lt;font style=&quot;line-height: 10% ; font-size: 11px&quot;&gt;beanFactory=obtainFreshBeanFactory()&lt;/font&gt;&lt;/p&gt;" style="whiteSpace=wrap;html=1;fillColor=#F2CC8F;strokeColor=#E07A5F;fontColor=#393C56;" vertex="1" parent="1">
          <mxGeometry x="200" y="80" width="440" height="80" as="geometry" />
        </mxCell>
        <mxCell id="6VQLEimUdbVgPZYmoGiA-6" style="edgeStyle=orthogonalEdgeStyle;curved=0;rounded=1;sketch=0;orthogonalLoop=1;jettySize=auto;html=1;strokeColor=#E07A5F;fillColor=#F2CC8F;fontColor=#393C56;" edge="1" parent="1" source="6VQLEimUdbVgPZYmoGiA-3" target="6VQLEimUdbVgPZYmoGiA-5">
          <mxGeometry relative="1" as="geometry" />
        </mxCell>
        <mxCell id="6VQLEimUdbVgPZYmoGiA-3" value="&lt;font style=&quot;font-size: 16px&quot;&gt;在获取BeanFactory后一些处理(钩子)&lt;/font&gt;&lt;br&gt;&lt;br&gt;prepareBeanFactory()" style="whiteSpace=wrap;html=1;fillColor=#F2CC8F;strokeColor=#E07A5F;fontColor=#393C56;" vertex="1" parent="1">
          <mxGeometry x="200" y="240" width="440" height="80" as="geometry" />
        </mxCell>
        <mxCell id="6VQLEimUdbVgPZYmoGiA-5" value="&lt;font style=&quot;font-size: 16px&quot;&gt;在处理BeanFactory前一些处理(钩子)&lt;/font&gt;&lt;br&gt;&lt;br&gt;postProcessBeanFactory()" style="whiteSpace=wrap;html=1;fillColor=#F2CC8F;strokeColor=#E07A5F;fontColor=#393C56;" vertex="1" parent="1">
          <mxGeometry x="200" y="400" width="440" height="80" as="geometry" />
        </mxCell>
      </root>
    </mxGraphModel>
  </diagram>
</mxfile>
